####
#
# OBJ File Generated by Meshlab
#
####
# Object convex1.obj
#
# Vertices: 158
# Faces: 312
#
####
vn 0.4694436 0.2441958 -0.8485230
v 0.1316196 0.0732938 -0.0000003
vn 0.4337372 0.3540400 0.8285697
v 0.6667765 0.4563277 13.6585007
vn -0.8855546 -0.4493440 0.1178263
v -2.2451851 -1.1912842 8.3744020
vn 0.4927899 -0.8425782 -0.2173019
v 1.2856860 -1.9009702 4.6999683
vn -0.4300580 0.8996065 -0.0758832
v -1.3669131 1.9193715 6.0832901
vn -0.6099844 -0.6849386 -0.3984699
v -2.0284417 -1.0021578 3.6418118
vn 0.2068668 -0.9490438 0.2377438
v 0.0602966 -1.9775617 9.9613390
vn 0.9199554 0.3715283 -0.1250952
v 2.0959592 1.2158889 5.2326298
vn -0.7794216 0.5837601 0.2274337
v -1.5368243 1.4081379 9.8167810
vn -0.1184687 -0.5857180 -0.8018102
v -0.0299089 -0.1475336 0.0000517
vn -0.9851179 0.1663148 0.0433836
v -2.4081900 0.3636473 6.2985954
vn 0.7988074 -0.5396511 0.2658637
v 1.3225688 -0.9531141 10.6115646
vn -0.4677849 -0.7234063 0.5077999
v -0.5545864 -0.8973847 12.3275280
vn -0.1429300 -0.9888568 -0.0416328
v -0.8609951 -2.1550758 6.8413134
vn 0.9436387 -0.2400536 -0.2278605
v 2.2355602 -0.4783312 4.5233088
vn 0.4458250 0.8846905 0.1362454
v 0.9775302 2.0223467 9.6413698
vn 0.4209082 0.8687877 -0.2608530
v 1.3681660 1.9144468 3.7007079
vn 0.0112849 -0.9434053 -0.3314501
v 0.7399192 -1.7476209 4.0344648
vn -0.7750584 0.6027686 -0.1896168
v -2.0940008 1.3828959 4.9391508
vn -0.9714528 -0.0617746 -0.2290487
v -2.2422996 -0.8116449 3.9766467
vn -0.9840795 0.0564370 0.1685302
v -2.2399025 -0.6416781 8.5664558
vn 0.6844139 -0.7198068 0.1159987
v 1.5592958 -1.5243636 7.6504483
vn 0.5021676 -0.7512662 0.4282837
v 0.5522782 -1.0604892 11.8916712
vn 0.9582136 0.1829808 0.2198747
v 2.0363579 0.9213514 8.4000654
vn -0.3427377 -0.8767181 0.3374853
v -0.4329470 -1.6214333 11.1480598
vn -0.8806759 -0.1786485 0.4387422
v -1.6310686 -0.4668495 11.2213802
vn 0.2962904 -0.9550337 0.0110802
v 0.8847693 -2.0473833 6.3352103
vn -0.8067147 -0.5782850 -0.1216466
v -2.2120514 -0.9889097 4.1305795
vn 0.4667404 -0.3207845 -0.8241667
v 0.1240125 -0.0838460 0.0000210
vn -0.2338516 0.8878275 0.3963280
v -0.2559187 1.8949853 11.1871948
vn 0.8763121 0.2714484 -0.3979860
v 1.5194340 1.2209337 3.0057793
vn 0.8411317 0.5334166 0.0892419
v 2.1217406 1.3875462 7.5272422
vn -0.2966279 0.9535211 0.0530038
v -0.7800578 2.2449522 7.8842525
vn 0.1071695 -0.5652472 -0.8179306
v 0.0274328 -0.1476181 0.0000182
vn -0.2697492 -0.9504364 -0.1546161
v -0.8737364 -2.0899074 6.1819859
vn -0.4621867 0.3093940 -0.8310589
v -0.1249195 0.0831299 0.0000017
vn -0.4595611 0.8143131 -0.3545389
v -1.4214444 1.4223052 3.8896015
vn -0.9308459 0.3265350 0.1640150
v -1.7472501 1.1168885 9.3331490
vn -0.6690205 0.7375007 0.0922185
v -1.4563223 1.6817601 8.3870239
vn -0.9661689 -0.2576747 0.0110223
v -2.3215141 -1.0010626 7.4192038
vn -0.9921374 0.1018732 -0.0727006
v -2.3809004 0.3573933 5.5905914
vn 0.4588398 -0.8365087 0.2995320
v 0.5350072 -1.4703555 11.0089474
vn 0.9589497 -0.2184014 0.1808766
v 2.1315017 -0.2852091 8.3299360
vn 0.8894070 -0.4560149 0.0317109
v 2.0018098 -1.0473230 6.6414914
vn 0.8788601 -0.2904761 0.3784555
v 0.9418087 0.0422261 12.9215374
vn 0.2570389 -0.6291749 0.7335325
v 0.5524110 -0.0006128 13.4793673
vn -0.3794548 -0.9229580 0.0645201
v -1.1452291 -2.0757992 8.0428400
vn -0.0621288 -0.8876001 0.4564056
v -0.2342982 -1.4848210 11.5953159
vn -0.6639444 0.2018974 0.7200106
v -0.0594114 0.2741829 13.2603407
vn -0.6595977 -0.6977889 0.2793234
v -1.6744889 -1.5110170 9.1100769
vn 0.1702221 -0.9807696 -0.0954751
v 1.2106075 -1.9309161 4.8258934
vn 0.0535416 -0.9925597 0.1093550
v -0.1591570 -2.1377704 9.2377939
vn 0.4968415 -0.8538701 0.1550947
v 0.5203516 -1.8340178 9.5753412
vn -0.9047979 -0.3093522 -0.2926468
v -2.2237146 -0.8630510 3.9489398
vn 0.8615165 -0.2735054 -0.4277665
v 1.3251982 -0.2677818 2.4275246
vn 0.6106197 0.7311749 0.3041825
v 1.0272484 1.7381335 10.5321274
vn 0.3611695 0.8023825 -0.4751199
v 1.1956478 1.5725018 2.7802527
vn 0.9138912 0.2808327 -0.2931483
v 1.5480016 1.2169704 3.0839572
vn 0.7606108 0.6428440 -0.0906803
v 1.7738556 1.6020179 4.7245092
vn 0.9985410 0.0532400 0.0090206
v 2.3663659 0.4630252 6.5093613
vn 0.8285233 0.4475062 0.3365819
v 0.8217602 0.6084415 13.0951414
vn -0.1587384 0.9767783 -0.1438969
v -0.4124105 2.1684990 6.3439417
vn 0.2179975 0.9757079 -0.0217083
v 0.6689500 2.1808791 6.6992717
vn 0.0931743 0.9819989 0.1643070
v 0.2284143 2.1247945 10.1057196
vn -0.0071410 -0.5873936 -0.8092699
v -0.0010106 -0.1504291 0.0000330
vn 0.3132022 -0.4687985 -0.8259130
v 0.0832574 -0.1248093 0.0000006
vn -0.4819030 -0.8485197 -0.2185950
v -2.0310876 -1.0198559 3.7119777
vn -0.8907694 0.0591425 -0.4505908
v -1.9023728 -0.6075702 3.2156932
vn -0.4813652 -0.1963072 -0.8542547
v -0.1386840 -0.0577131 0.0000123
vn -0.4423897 0.8967668 -0.0100355
v -0.8096189 2.2305176 7.8136520
vn -0.9904092 0.0321100 -0.1343825
v -2.2878957 -0.4732908 4.3440747
vn 0.6306581 -0.7503605 0.1980640
v 1.1861397 -1.2495520 10.0178633
vn 0.4793482 -0.7990212 0.3630294
v 0.5472875 -1.2909148 11.4196625
vn 0.8364091 -0.5251237 0.1570510
v 1.6899475 -1.2454422 8.0163126
vn 0.7550812 -0.6549996 0.0287747
v 1.7401292 -1.3858250 6.7484641
vn 0.9746011 -0.2170109 0.0553091
v 2.2230682 -0.1243023 7.4682398
vn 0.9585729 -0.1186725 0.2589497
v 1.4082536 -0.0217898 11.3411522
vn 0.6870606 -0.4389735 0.5790078
v 0.6462392 0.1812300 13.5272417
vn -0.6049812 -0.7962366 -0.0022798
v -1.4236900 -1.8795145 7.9339781
vn -0.4549400 -0.8883843 -0.0616676
v -0.9811719 -2.1133232 6.8455606
vn -0.3196435 -0.6042629 0.7298592
v -0.1761189 -0.5515365 12.8811598
vn 0.3074639 -0.7923680 0.5268956
v 0.4493959 -0.9106131 12.2063446
vn -0.0749155 -0.9758466 0.2052100
v -0.2230919 -2.0419168 9.7701216
vn 0.1998043 -0.9208582 0.3348110
v -0.2153137 -1.4972384 11.5506153
vn 0.0504830 -0.3548939 0.9335426
v 0.5717547 0.2383773 13.6252661
vn -0.7210662 0.5762481 0.3847100
v -1.2153609 1.4260510 10.5673618
vn -0.4655926 0.6529063 0.5974420
v 0.5324787 0.5038728 13.5402451
vn -0.7171190 -0.6483862 0.2556084
v -2.2007816 -1.2117076 8.4485016
vn -0.5294566 -0.8247530 0.1986408
v -1.5304675 -1.6591699 8.9882441
vn -0.0007855 -0.9935961 -0.1129873
v -0.6264055 -2.0925756 6.1636286
vn 0.4025859 -0.8981006 0.1770311
v 0.2359390 -1.9292578 9.8778687
vn 0.4867356 -0.8683890 0.0948109
v 1.2233026 -1.7529724 7.4384146
vn 0.5512214 -0.0000110 -0.8343591
v 0.1500000 -0.0000000 0.0000000
vn 0.6903358 -0.6018909 -0.4014522
v 1.2178423 -1.7771189 4.3974404
vn 0.1254408 0.9500596 0.2857472
v 0.0036897 1.9696776 10.9013014
vn 0.7124633 0.6678084 0.2154716
v 1.0430017 1.7464699 10.4557638
vn 0.8046892 0.4889063 -0.3368174
v 1.4223319 1.4427092 3.0704727
vn -0.0161891 0.5515382 -0.8339925
v -0.0024563 0.1495152 0.0000330
vn 0.8642089 0.4638412 -0.1949212
v 1.8082137 1.5280118 4.6725621
vn 0.9884688 -0.0612943 0.1384650
v 2.1440189 -0.2454282 8.2697382
vn 0.8535417 0.4455800 0.2700464
v 1.0638103 1.1306456 11.4771996
vn 0.9457862 0.0765477 0.3156405
v 0.8172594 0.3095961 13.2530785
vn 0.0316912 0.9991977 -0.0244882
v 0.1470791 2.2359226 7.0810094
vn -0.1975112 0.9717919 0.1288796
v -0.2818804 2.1112638 9.7666035
vn 0.2132182 -0.5265136 -0.8229954
v 0.0573497 -0.1386647 0.0000014
vn -0.3930461 0.3933046 -0.8311595
v -0.1060812 0.1060465 -0.0000000
vn -0.9256702 0.1911758 -0.3264760
v -2.1754220 -0.3131603 3.9994640
vn -0.5173102 0.2122783 -0.8290526
v -0.1389133 0.0570403 0.0000096
vn -0.8981608 -0.1459323 -0.4147420
v -2.1638689 -0.8306867 3.7959318
vn -0.3027444 -0.4701642 -0.8290304
v -0.0835534 -0.1251363 0.0000454
vn -0.8356314 -0.2591355 -0.4843232
v -1.9045440 -0.7625175 3.2651389
vn -0.9670975 0.1561124 -0.2008766
v -2.2660348 -0.1061382 4.5058575
vn 0.9866793 -0.1517778 0.0585451
v 2.2373917 -0.0660875 7.4018631
vn 0.9533596 0.1648231 0.2528615
v 1.4020138 0.2062597 11.2759848
vn 0.7312320 -0.3544240 0.5828237
v 0.6569565 0.2364396 13.5515699
vn -0.6484584 -0.7599784 -0.0439848
v -1.8016763 -1.4981802 6.8368864
vn 0.1109537 -0.8014163 0.5877255
v -0.0321185 -0.5841720 12.8227081
vn -0.1535122 -0.7826145 0.6032814
v -0.3842990 -0.8333203 12.4749794
vn -0.5623957 -0.5189564 0.6437355
v -0.5498442 -0.8245970 12.4231567
vn -0.2848454 -0.9335371 0.2176502
v -0.2913126 -2.0202746 9.8015165
vn -0.3786399 0.1906178 0.9057024
v 0.5848173 0.4137118 13.6474695
vn -0.2686053 -0.5421941 0.7961638
v 0.0366110 -0.3479705 13.0961142
vn -0.8604584 0.3495125 0.3707457
v -1.3004414 1.3786883 10.4261341
vn -0.6495498 0.5421731 0.5330417
v -0.5216714 1.1116294 11.8848009
vn -0.7155436 0.6317064 0.2982355
v -1.2764447 1.4287766 10.4287291
vn -0.2914804 0.7002865 0.6516426
v 0.5932661 0.4860163 13.6053057
vn -0.5967456 -0.7683438 0.2313927
v -1.6163566 -1.5732923 9.0625820
vn -0.6244470 -0.7798901 0.0428662
v -1.5446297 -1.7795535 8.0361929
vn -0.0178826 -0.9944434 -0.1037428
v -0.6621487 -2.0927362 6.1711917
vn 0.5106940 -0.2196082 -0.8312424
v 0.1385754 -0.0574130 -0.0000000
vn 0.5341685 0.1073129 -0.8385392
v 0.1471155 0.0292434 -0.0000001
vn 0.4052810 -0.3978948 -0.8230596
v 0.1058811 -0.1062412 0.0000001
vn 0.2748279 0.4149733 -0.8673332
v 0.0833631 0.1246166 -0.0000000
vn -0.1186404 0.5599304 -0.8200015
v -0.0294667 0.1469122 0.0000018
vn 0.9602073 0.0725764 0.2696938
v 1.3629922 0.0713455 11.5019207
vn -0.0491946 0.9946967 -0.0903241
v -0.2489740 2.2007511 6.4728117
vn 0.0948808 0.9953852 0.0143534
v 0.2229685 2.2307751 7.1162820
vn -0.3695916 -0.3793576 -0.8482276
v -0.1060513 -0.1061216 0.0000006
vn -0.8767526 0.2583149 -0.4056827
v -2.0110021 -0.2617646 3.6623592
vn -0.5336823 0.0041301 -0.8456750
v -0.1501660 -0.0002952 0.0000084
vn -0.2099763 -0.5353073 -0.8181418
v -0.0574331 -0.1387943 0.0000111
vn 0.3203641 -0.2219564 0.9209247
v 0.6433151 0.3972667 13.6555481
vn -0.5804890 -0.2995540 0.7571657
v -0.1344304 -0.3688527 12.9938507
vn -0.4747569 -0.2056236 0.8557598
v 0.2754534 0.1842137 13.4659624
vn -0.5579060 0.6512889 0.5143576
v -0.3503745 1.6871477 11.3629341
vn 0.5397748 -0.1073744 -0.8349335
v 0.1471113 -0.0292779 -0.0000000
vn 0.0876714 0.5182506 -0.8507233
v 0.0292742 0.1469961 0.0000008
vn 0.3619059 0.3491066 -0.8643777
v 0.1060742 0.1060463 -0.0000001
vn -0.3078692 0.4678852 -0.8284323
v -0.0833350 0.1247175 -0.0000000
vn 0.9480348 0.1618949 0.2738979
v 0.8428884 0.5730459 13.0446186
vn -0.4448181 -0.3034701 -0.8426403
v -0.1251429 -0.0839219 0.0000941
vn -0.5403307 0.1156393 -0.8334689
v -0.1474267 0.0288595 0.0000148
vn -0.5148153 -0.1000101 -0.8514478
v -0.1472534 -0.0295728 0.0000106
vn -0.5320494 0.6795760 0.5050742
v -0.3005709 1.8026963 11.2678699
vn -0.6676374 0.5573922 0.4935324
v -0.5739972 1.1527447 11.7686224
vn 0.1885309 0.4686337 -0.8630403
v 0.0574192 0.1384349 0.0000013
vn -0.2115757 0.5298729 -0.8212615
v -0.0576529 0.1383717 0.0000001
vn -0.8585155 -0.1389811 -0.4935943
v -1.7110685 -0.5757604 2.8732054
# 158 vertices, 0 vertices normals

f 18//18 6//6 10//10
f 26//26 21//21 3//3
f 26//26 25//25 13//13
f 27//27 4//4 22//22
f 32//32 17//17 16//16
f 33//33 9//9 30//30
f 34//34 4//4 18//18
f 35//35 6//6 18//18
f 37//37 19//19 5//5
f 37//37 36//36 19//19
f 38//38 19//19 11//11
f 38//38 9//9 19//19
f 38//38 11//11 21//21
f 38//38 26//26 9//9
f 38//38 21//21 26//26
f 39//39 19//19 9//9
f 39//39 5//5 19//19
f 39//39 9//9 33//33
f 40//40 28//28 3//3
f 40//40 20//20 28//28
f 40//40 21//21 11//11
f 40//40 3//3 21//21
f 41//41 11//11 19//19
f 44//44 4//4 15//15
f 45//45 23//23 12//12
f 46//46 23//23 45//45
f 48//48 13//13 25//25
f 50//50 25//25 26//26
f 51//51 27//27 14//14
f 51//51 4//4 27//27
f 51//51 35//35 18//18
f 51//51 18//18 4//4
f 52//52 14//14 27//27
f 52//52 47//47 14//14
f 54//54 28//28 20//20
f 54//54 6//6 28//28
f 55//55 31//31 15//15
f 55//55 15//15 4//4
f 57//57 31//31 1//1
f 57//57 37//37 17//17
f 58//58 8//8 15//15
f 58//58 15//15 31//31
f 59//59 32//32 8//8
f 59//59 17//17 32//32
f 60//60 15//15 8//8
f 60//60 8//8 32//32
f 60//60 32//32 24//24
f 61//61 24//24 32//32
f 61//61 56//56 2//2
f 62//62 5//5 33//33
f 62//62 37//37 5//5
f 62//62 17//17 37//37
f 63//63 16//16 17//17
f 64//64 16//16 63//63
f 65//65 34//34 18//18
f 65//65 18//18 10//10
f 67//67 35//35 28//28
f 67//67 28//28 6//6
f 67//67 6//6 35//35
f 70//70 39//39 33//33
f 70//70 33//33 5//5
f 70//70 5//5 39//39
f 71//71 40//40 11//11
f 71//71 20//20 40//40
f 71//71 11//11 41//41
f 72//72 22//22 12//12
f 72//72 12//12 42//42
f 72//72 53//53 22//22
f 72//72 42//42 53//53
f 73//73 42//42 12//12
f 73//73 12//12 23//23
f 73//73 48//48 42//42
f 73//73 23//23 48//48
f 74//74 43//43 12//12
f 74//74 12//12 22//22
f 74//74 44//44 43//43
f 74//74 22//22 44//44
f 75//75 44//44 22//22
f 75//75 22//22 4//4
f 75//75 4//4 44//44
f 76//76 44//44 15//15
f 76//76 43//43 44//44
f 77//77 45//45 12//12
f 77//77 12//12 43//43
f 78//78 46//46 45//45
f 80//80 35//35 14//14
f 80//80 14//14 47//47
f 80//80 47//47 79//79
f 80//80 79//79 28//28
f 80//80 28//28 35//35
f 82//82 48//48 23//23
f 82//82 23//23 46//46
f 82//82 46//46 48//48
f 83//83 48//48 25//25
f 83//83 7//7 48//48
f 83//83 52//52 7//7
f 83//83 47//47 52//52
f 84//84 48//48 7//7
f 84//84 7//7 42//42
f 84//84 42//42 48//48
f 85//85 46//46 78//78
f 86//86 26//26 49//49
f 88//88 50//50 26//26
f 88//88 26//26 3//3
f 88//88 3//3 50//50
f 89//89 47//47 25//25
f 90//90 51//51 14//14
f 90//90 35//35 51//51
f 91//91 52//52 27//27
f 91//91 7//7 52//52
f 91//91 27//27 53//53
f 91//91 53//53 42//42
f 91//91 42//42 7//7
f 92//92 53//53 27//27
f 92//92 27//27 22//22
f 92//92 22//22 53//53
f 93//93 31//31 55//55
f 94//94 55//55 4//4
f 94//94 29//29 55//55
f 95//95 30//30 2//2
f 95//95 2//2 56//56
f 95//95 64//64 30//30
f 95//95 56//56 16//16
f 95//95 16//16 64//64
f 96//96 56//56 32//32
f 96//96 32//32 16//16
f 96//96 16//16 56//56
f 97//97 57//57 17//17
f 97//97 31//31 57//57
f 97//97 58//58 31//31
f 97//97 17//17 58//58
f 99//99 58//58 17//17
f 99//99 8//8 58//58
f 99//99 59//59 8//8
f 99//99 17//17 59//59
f 100//100 60//60 24//24
f 100//100 77//77 43//43
f 100//100 24//24 77//77
f 100//100 43//43 76//76
f 101//101 61//61 32//32
f 101//101 32//32 56//56
f 101//101 56//56 61//61
f 102//102 61//61 2//2
f 102//102 2//2 45//45
f 103//103 63//63 17//17
f 103//103 33//33 64//64
f 104//104 64//64 33//33
f 104//104 33//33 30//30
f 104//104 30//30 64//64
f 105//105 66//66 4//4
f 105//105 4//4 34//34
f 106//106 36//36 37//37
f 107//107 68//68 20//20
f 107//107 20//20 71//71
f 108//108 19//19 36//36
f 109//109 54//54 20//20
f 109//109 20//20 68//68
f 109//109 6//6 54//54
f 111//111 69//69 6//6
f 111//111 109//109 68//68
f 111//111 6//6 109//109
f 112//112 71//71 41//41
f 112//112 41//41 19//19
f 112//112 107//107 71//71
f 112//112 19//19 107//107
f 113//113 76//76 15//15
f 113//113 15//15 60//60
f 113//113 100//100 76//76
f 113//113 60//60 100//100
f 114//114 24//24 61//61
f 115//115 78//78 45//45
f 115//115 45//45 2//2
f 115//115 85//85 78//78
f 116//116 79//79 3//3
f 116//116 3//3 28//28
f 116//116 28//28 79//79
f 117//117 81//81 48//48
f 117//117 48//48 46//46
f 117//117 46//46 81//81
f 118//118 13//13 48//48
f 118//118 48//48 81//81
f 119//119 49//49 26//26
f 119//119 26//26 13//13
f 119//119 118//118 81//81
f 119//119 13//13 118//118
f 120//120 83//83 25//25
f 120//120 25//25 47//47
f 120//120 47//47 83//83
f 122//122 81//81 46//46
f 122//122 46//46 85//85
f 123//123 9//9 26//26
f 123//123 26//26 86//86
f 124//124 86//86 49//49
f 124//124 49//49 87//87
f 125//125 86//86 30//30
f 125//125 30//30 9//9
f 125//125 123//123 86//86
f 125//125 9//9 123//123
f 126//126 2//2 30//30
f 126//126 30//30 87//87
f 126//126 121//121 2//2
f 126//126 87//87 49//49
f 126//126 49//49 121//121
f 127//127 89//89 25//25
f 127//127 25//25 50//50
f 127//127 50//50 3//3
f 127//127 3//3 89//89
f 128//128 79//79 47//47
f 128//128 47//47 89//89
f 128//128 89//89 3//3
f 128//128 3//3 79//79
f 129//129 90//90 14//14
f 129//129 14//14 35//35
f 129//129 35//35 90//90
f 130//130 55//55 29//29
f 130//130 106//106 1//1
f 131//131 1//1 31//31
f 131//131 31//31 93//93
f 132//132 29//29 94//94
f 132//132 94//94 4//4
f 132//132 4//4 66//66
f 132//132 130//130 29//29
f 132//132 106//106 130//130
f 134//134 37//37 57//57
f 134//134 57//57 98//98
f 135//135 102//102 45//45
f 135//135 45//45 77//77
f 135//135 24//24 114//114
f 135//135 77//77 24//24
f 136//136 62//62 33//33
f 136//136 33//33 103//103
f 136//136 103//103 17//17
f 136//136 17//17 62//62
f 137//137 103//103 64//64
f 137//137 64//64 63//63
f 137//137 63//63 103//103
f 138//138 110//110 6//6
f 138//138 36//36 106//106
f 138//138 66//66 105//105
f 138//138 132//132 66//66
f 138//138 106//106 132//132
f 139//139 107//107 19//19
f 139//139 68//68 107//107
f 139//139 108//108 68//68
f 139//139 19//19 108//108
f 140//140 108//108 36//36
f 140//140 36//36 138//138
f 141//141 10//10 6//6
f 141//141 110//110 138//138
f 141//141 6//6 110//110
f 141//141 65//65 10//10
f 141//141 34//34 65//65
f 141//141 138//138 105//105
f 141//141 105//105 34//34
f 142//142 115//115 2//2
f 142//142 85//85 115//115
f 142//142 121//121 85//85
f 142//142 2//2 121//121
f 143//143 119//119 81//81
f 143//143 49//49 119//119
f 143//143 81//81 122//122
f 144//144 121//121 49//49
f 144//144 85//85 121//121
f 144//144 49//49 143//143
f 144//144 143//143 122//122
f 144//144 122//122 85//85
f 145//145 124//124 87//87
f 146//146 93//93 55//55
f 146//146 55//55 130//130
f 146//146 131//131 93//93
f 146//146 130//130 1//1
f 146//146 1//1 131//131
f 147//147 98//98 57//57
f 147//147 134//134 98//98
f 148//148 133//133 57//57
f 148//148 57//57 1//1
f 149//149 106//106 37//37
f 149//149 133//133 148//148
f 149//149 148//148 1//1
f 149//149 1//1 106//106
f 150//150 135//135 114//114
f 150//150 114//114 61//61
f 150//150 61//61 102//102
f 150//150 102//102 135//135
f 151//151 138//138 6//6
f 151//151 6//6 69//69
f 151//151 69//69 138//138
f 152//152 140//140 68//68
f 152//152 68//68 108//108
f 152//152 108//108 140//140
f 153//153 68//68 140//140
f 153//153 69//69 111//111
f 153//153 140//140 138//138
f 153//153 138//138 69//69
f 154//154 30//30 86//86
f 154//154 86//86 145//145
f 154//154 145//145 87//87
f 154//154 87//87 30//30
f 155//155 145//145 86//86
f 155//155 86//86 124//124
f 155//155 124//124 145//145
f 156//156 147//147 57//57
f 156//156 57//57 133//133
f 156//156 133//133 147//147
f 157//157 149//149 37//37
f 157//157 37//37 134//134
f 157//157 134//134 147//147
f 157//157 147//147 133//133
f 157//157 133//133 149//149
f 158//158 153//153 111//111
f 158//158 111//111 68//68
f 158//158 68//68 153//153
# 312 faces, 0 coords texture

# End of File
